<svg width="550" height="550" viewBox="0 0 550 550" fill="none" xmlns="http://www.w3.org/2000/svg">
<circle cx="275" cy="275" r="275" fill="white"/>
<rect width="37.196" height="197.305" rx="18.598" transform="matrix(-0.993914 -0.110156 -0.110156 0.993914 296.931 272.442)" fill="#2187FF"/>
<rect width="37.196" height="197.305" rx="18.598" transform="matrix(-0.993914 -0.110156 -0.110156 0.993914 293.039 276.035)" fill="#3894FF"/>
<path d="M206.838 164.677C212.109 118.963 253.377 86.7001 299.011 92.6144C344.646 98.5287 377.367 140.381 372.095 186.094L352.066 359.784C350.247 375.554 336.011 386.684 320.269 384.643L199.252 368.959C190.561 367.833 184.33 359.862 185.334 351.156L206.838 164.677Z" fill="#2CD479"/>
<path d="M195.948 160.321C201.191 114.856 242.234 82.7684 287.621 88.6505C333.007 94.5327 365.55 136.158 360.307 181.622L338.588 369.963C337.357 380.64 327.718 388.176 317.059 386.795L199.316 371.535C184.23 369.58 173.413 355.744 175.155 340.631L195.948 160.321Z" fill="#40D987"/>
<circle cx="245.945" cy="236.076" r="8.98202" transform="rotate(-8.20756 245.945 236.076)" fill="#303030"/>
<circle cx="268.613" cy="247.478" r="2.2455" transform="rotate(-8.20756 268.613 247.478)" fill="#303030"/>
<circle cx="295.703" cy="241.302" r="8.98202" transform="rotate(-8.20756 295.703 241.302)" fill="#303030"/>
<path d="M279.288 256.557C279.908 257.104 279.972 258.056 279.365 258.619C278.006 259.879 276.422 260.879 274.69 261.564C272.493 262.432 270.122 262.769 267.77 262.545C265.418 262.322 263.153 261.545 261.159 260.278C259.587 259.279 258.219 257.999 257.122 256.505C256.632 255.839 256.874 254.915 257.586 254.495C258.298 254.074 259.209 254.318 259.715 254.971C260.56 256.064 261.591 257.006 262.764 257.751C264.359 258.764 266.172 259.386 268.053 259.564C269.935 259.743 271.832 259.474 273.589 258.779C274.881 258.269 276.071 257.538 277.108 256.624C277.728 256.077 278.668 256.01 279.288 256.557Z" fill="#303030"/>
<rect x="241.711" y="422.835" width="3.63886" height="29.3264" rx="1.81943" transform="rotate(6.82254 241.711 422.835)" fill="#C6E0FF"/>
<rect x="245.559" y="433.614" width="3.63886" height="14.5576" rx="1.81943" transform="rotate(6.82254 245.559 433.614)" fill="#C6E0FF"/>
<path d="M222.57 150.619C218.156 148.356 216.375 142.913 219.068 138.747C226.054 127.936 235.285 118.751 246.13 111.818C250.31 109.146 255.744 110.954 257.986 115.38C260.227 119.805 258.416 125.165 254.304 127.94C246.772 133.025 240.271 139.493 235.149 147C232.353 151.098 226.985 152.882 222.57 150.619Z" fill="white" fill-opacity="0.85"/>
</svg>
