<svg width="661" height="1317" viewBox="0 0 661 1317" fill="none" xmlns="http://www.w3.org/2000/svg">
<g clip-path="url(#clip0_377_1098)">
<path fill-rule="evenodd" clip-rule="evenodd" d="M587.574 393.929C586.523 378.469 566.212 373.523 558.171 386.769L533.359 427.639C530.303 431.003 528.052 435.08 526.928 439.699C523.019 455.75 534.191 472.254 551.88 476.561C569.569 480.869 587.078 471.348 590.986 455.297C592.111 450.679 591.987 446.023 590.819 441.631L587.574 393.929Z" fill="#A3EEC6" fill-opacity="0.95"/>
<path d="M101.644 177L100.144 180.5L142.65 188L143.144 164H138.203L131.285 165L123.379 166.5L114.979 170L108.556 173L101.644 177Z" fill="#40D987"/>
<rect width="124.235" height="659" rx="62.1175" transform="matrix(-0.993914 -0.110156 -0.110156 0.993914 408.414 649.437)" fill="#2187FF"/>
<rect width="124.235" height="659" rx="62.1175" transform="matrix(-0.993914 -0.110156 -0.110156 0.993914 395.414 661.437)" fill="#3894FF"/>
<rect x="223.979" y="1151.75" width="12.1538" height="97.9503" rx="6.0769" transform="rotate(6.82254 223.979 1151.75)" fill="#C6E0FF"/>
<rect x="236.831" y="1187.75" width="12.1538" height="48.6225" rx="6.0769" transform="rotate(6.82254 236.831 1187.75)" fill="#C6E0FF"/>
<path fill-rule="evenodd" clip-rule="evenodd" d="M142.118 163.985L187.791 164.416C205.159 164.58 222.091 170.248 236.183 180.618L283.584 215.497C316.312 239.579 358.55 235.662 386.169 211.896C388.702 211.756 391.26 211.511 393.84 211.159L475.798 199.972C498.732 196.842 522.07 202.547 541.129 215.945L609.24 263.823C624.992 274.895 642.271 280.224 659.221 280.734C661.527 301.277 661.59 322.356 659.182 343.681L591.415 943.806C585.466 996.49 538.034 1033.56 485.473 1026.6L81.2243 973.101C52.2062 969.26 31.345 942.568 34.6294 913.482L107.221 270.628C111.619 231.683 123.833 195.681 142.118 163.985Z" fill="#2CD479"/>
<path fill-rule="evenodd" clip-rule="evenodd" d="M101.971 177C110.427 180.019 119.586 181.716 129.25 181.806L188.143 182.349C205.296 182.508 221.98 187.977 235.898 198.006L283.681 232.436C316.033 255.746 357.67 251.908 385.412 228.867C388.218 228.742 391.056 228.491 393.923 228.107L476.333 217.092C498.952 214.069 521.887 219.56 540.685 232.499L609.171 279.64C612.494 281.927 615.884 283.961 619.325 285.749C621.596 306.227 621.62 327.25 619.167 348.525L546.626 977.583C542.514 1013.25 510.32 1038.42 474.719 1033.8L81.4569 982.834C31.0681 976.304 -5.06152 930.091 0.759162 879.615L70.207 277.379C74.4051 240.974 85.4756 207.137 101.971 177Z" fill="#40D987"/>
<circle cx="238.119" cy="527.975" r="30" transform="rotate(-8.20756 238.119 527.975)" fill="#303030"/>
<circle cx="313.831" cy="566.057" r="7.5" transform="rotate(-8.20756 313.831 566.057)" fill="#303030"/>
<circle cx="404.313" cy="545.428" r="30" transform="rotate(-8.20756 404.313 545.428)" fill="#303030"/>
<path d="M311.941 598.275L345.358 607.075C352.984 609.083 351.122 620.389 343.254 619.845L275.527 615.16C267.659 614.616 267.371 603.161 275.201 602.222L309.512 598.107C310.325 598.009 311.149 598.066 311.941 598.275Z" fill="#FFACAC" stroke="#303030" stroke-width="3"/>
<path fill-rule="evenodd" clip-rule="evenodd" d="M125.949 448.149C125.402 440.113 114.846 437.543 110.666 444.428L97.7698 465.67C96.181 467.419 95.0113 469.538 94.4268 471.938C92.3953 480.281 98.2018 488.86 107.396 491.098C116.59 493.337 125.691 488.389 127.722 480.046C128.307 477.645 128.242 475.225 127.635 472.943L125.949 448.149Z" fill="#A3EEC6" fill-opacity="0.95"/>
<path fill-rule="evenodd" clip-rule="evenodd" d="M144.949 521.149C144.402 513.113 133.846 510.543 129.666 517.428L116.77 538.67C115.181 540.419 114.011 542.538 113.427 544.938C111.395 553.281 117.202 561.86 126.396 564.098C135.59 566.337 144.691 561.389 146.722 553.046C147.307 550.645 147.242 548.225 146.635 545.943L144.949 521.149Z" fill="#A3EEC6" fill-opacity="0.95"/>
<ellipse cx="427.144" cy="1298.49" rx="66" ry="17.5" fill="#3FCC80"/>
<ellipse cx="522.144" cy="1280.49" rx="29" ry="11.5" fill="#3FCC80"/>
<ellipse cx="527.644" cy="1310.49" rx="15.5" ry="5.5" fill="#3FCC80"/>
<rect width="23.543" height="57.5333" rx="11.7715" transform="matrix(0.997841 0.0334328 -0.0852643 0.998628 311.372 481.039)" fill="#9F9F9F" fill-opacity="0.5"/>
<rect width="12.3104" height="38.6064" rx="6.15522" transform="matrix(0.997841 0.0334328 -0.0852643 0.998628 288.379 487.002)" fill="#9F9F9F" fill-opacity="0.5"/>
<rect width="12.3104" height="38.6064" rx="6.15522" transform="matrix(0.997841 0.0334328 -0.0852643 0.998628 344.04 489.201)" fill="#9F9F9F" fill-opacity="0.5"/>
<ellipse cx="58.8997" cy="47.5961" rx="58.8997" ry="47.5961" transform="matrix(0.999687 -0.0250251 -0.00237451 0.999997 263.827 462.473)" fill="black" fill-opacity="0.05"/>
</g>
<defs>
<clipPath id="clip0_377_1098">
<rect width="660.825" height="1316.43" fill="white" transform="translate(0.14386)"/>
</clipPath>
</defs>
</svg>
