<svg width="650" height="1317" viewBox="0 0 650 1317" fill="none" xmlns="http://www.w3.org/2000/svg">
<g clip-path="url(#clip0_377_1099)">
<rect width="124.235" height="659" rx="62.1175" transform="matrix(-0.993914 -0.110156 -0.110156 0.993914 409.239 649.437)" fill="#2187FF"/>
<rect width="124.235" height="659" rx="62.1175" transform="matrix(-0.993914 -0.110156 -0.110156 0.993914 396.239 661.437)" fill="#3894FF"/>
<path fill-rule="evenodd" clip-rule="evenodd" d="M173.202 366.444C162.513 377.936 145.016 382.655 128.904 375.097L127.245 374.319C117.058 369.54 105.783 369.895 96.3363 374.326L35.4545 913.481C32.1701 942.568 53.0314 969.26 82.0494 973.101L486.298 1026.6C538.859 1033.56 586.291 996.49 592.24 943.806L649.952 432.72C629.44 454.054 595.196 441.844 588.665 416.545L578.738 433.453C564.142 458.312 528.322 458.663 513.242 434.096L512.283 432.534C501.761 415.393 479.324 410.046 462.202 420.6C438.948 434.934 413.662 420.135 407.749 398.952C399.248 397.998 390.884 394.356 383.97 387.697L381.532 385.348C368.968 373.246 349.646 371.596 335.213 381.392C312.971 396.487 286.539 383.645 279.315 362.576C269.429 364.528 258.881 362.594 250.292 356.747C249.955 356.739 249.617 356.715 249.278 356.675L241.842 355.796C237.24 355.252 235.028 349.794 235.14 345.162C235.212 342.139 234.189 339.425 232.16 337.258C230.13 335.091 227.156 333.537 223.497 332.73C219.838 331.924 215.604 331.89 211.167 332.632C206.729 333.374 202.222 334.868 198.039 336.986C193.855 339.103 190.123 341.778 187.168 344.779C184.212 347.779 182.123 351.012 181.084 354.197C179.57 358.834 177.573 364.363 173.202 366.444Z" fill="#2CD479"/>
<path fill-rule="evenodd" clip-rule="evenodd" d="M173.202 366.444C162.513 377.936 145.016 382.655 128.904 375.097L127.245 374.319C109.036 365.777 87.3514 373.637 78.8433 391.861C73.6938 402.892 65.0284 409.31 55.5361 411.757L1.5843 879.615C-4.23638 930.091 31.8933 976.304 82.2821 982.834L475.544 1033.8C511.145 1038.42 543.339 1013.25 547.451 977.583L609.398 440.397C599.531 436.015 591.495 427.509 588.665 416.545L578.738 433.453C564.142 458.312 528.322 458.663 513.242 434.096L512.283 432.534C501.761 415.393 479.324 410.046 462.202 420.6C438.948 434.934 413.662 420.135 407.749 398.952C399.248 397.998 390.884 394.356 383.97 387.697L381.532 385.348C368.968 373.246 349.646 371.596 335.213 381.392C312.971 396.487 286.539 383.645 279.315 362.576C269.429 364.528 258.88 362.594 250.292 356.747C249.955 356.739 249.616 356.715 249.278 356.675L241.842 355.796C237.24 355.252 235.028 349.794 235.14 345.162C235.212 342.139 234.189 339.425 232.16 337.258C230.13 335.091 227.156 333.537 223.497 332.73C219.838 331.924 215.604 331.89 211.167 332.632C206.729 333.374 202.222 334.868 198.039 336.986C193.855 339.103 190.123 341.778 187.168 344.779C184.212 347.779 182.123 351.012 181.084 354.197C179.57 358.834 177.573 364.362 173.202 366.444Z" fill="#40D987"/>
<rect x="224.804" y="1151.75" width="12.1538" height="97.9503" rx="6.0769" transform="rotate(6.82254 224.804 1151.75)" fill="#C6E0FF"/>
<rect x="237.657" y="1187.75" width="12.1538" height="48.6225" rx="6.0769" transform="rotate(6.82254 237.657 1187.75)" fill="#C6E0FF"/>
<circle cx="308.656" cy="614.057" r="7.5" transform="rotate(-8.20756 308.656 614.057)" fill="#303030"/>
<path d="M253.969 644C258.473 644.819 261.738 651.142 266.673 651.283C273.225 651.47 278.68 646.185 285.325 646.185C290.085 646.185 292.083 648.286 296.37 649.664C301.641 651.358 305.64 652.011 311.138 652.011C316.879 652.011 322.24 650.554 327.848 650.554C332.892 650.554 333.541 652.55 337.72 654.762C341.184 656.596 343.571 657.033 347.551 656.421C349.329 656.148 350.53 654.924 352.285 654.924C353.574 654.924 355.339 655.37 355.927 654.196" stroke="#303030" stroke-width="7" stroke-linecap="round"/>
<path d="M427.532 632.075C430.325 626.993 428.47 620.609 423.388 617.816L389.999 599.461L426.382 586.957C431.866 585.073 434.784 579.099 432.9 573.615C431.015 568.131 425.041 565.213 419.557 567.098L361.869 586.923C359.073 587.884 356.944 589.908 355.778 592.387C355.743 592.449 355.708 592.511 355.673 592.574C352.88 597.656 354.735 604.04 359.816 606.834L413.272 636.219C418.354 639.012 424.738 637.157 427.532 632.075Z" fill="#303030"/>
<path d="M214.165 540.113C210.645 544.721 211.528 551.311 216.136 554.83L246.417 577.957L208.576 584.898C202.873 585.944 199.097 591.416 200.143 597.12C201.189 602.824 206.661 606.599 212.365 605.553L272.364 594.548C275.272 594.014 277.679 592.33 279.201 590.052C279.245 589.996 279.289 589.94 279.333 589.883C282.853 585.274 281.97 578.685 277.361 575.165L228.882 538.141C224.274 534.621 217.684 535.504 214.165 540.113Z" fill="#303030"/>
<path fill-rule="evenodd" clip-rule="evenodd" d="M541.395 561.8C540.343 546.34 520.033 541.394 511.992 554.64L487.18 595.51C484.124 598.873 481.873 602.951 480.748 607.569C476.84 623.621 488.012 640.125 505.701 644.432C523.39 648.739 540.899 639.219 544.807 623.168C545.932 618.549 545.808 613.893 544.639 609.501L541.395 561.8Z" fill="#A3EEC6" fill-opacity="0.95"/>
<path fill-rule="evenodd" clip-rule="evenodd" d="M99.7123 1167.93C97.9011 1160.08 87.0707 1159.22 84.0333 1166.68L74.6611 1189.69C73.369 1191.67 72.5494 1193.95 72.3522 1196.41C71.6665 1204.97 78.7574 1212.52 88.1901 1213.28C97.6228 1214.03 105.825 1207.71 106.511 1199.15C106.708 1196.68 106.262 1194.31 105.301 1192.15L99.7123 1167.93Z" fill="#40D987" fill-opacity="0.95"/>
<path fill-rule="evenodd" clip-rule="evenodd" d="M476.316 1084.48C475.086 1076.52 464.349 1074.86 460.772 1082.08L449.734 1104.34C448.3 1106.22 447.315 1108.43 446.938 1110.87C445.625 1119.36 452.142 1127.41 461.493 1128.86C470.845 1130.3 479.49 1124.6 480.803 1116.11C481.181 1113.67 480.91 1111.26 480.111 1109.04L476.316 1084.48Z" fill="#40D987" fill-opacity="0.95"/>
<ellipse cx="427.969" cy="1298.49" rx="66" ry="17.5" fill="#3FCC80"/>
<ellipse cx="522.969" cy="1280.49" rx="29" ry="11.5" fill="#3FCC80"/>
<ellipse cx="89.469" cy="1297.99" rx="38.5" ry="17" fill="#3FCC80"/>
<ellipse cx="528.469" cy="1310.49" rx="15.5" ry="5.5" fill="#3FCC80"/>
</g>
<defs>
<clipPath id="clip0_377_1099">
<rect width="648.983" height="1316.43" fill="white" transform="translate(0.968994)"/>
</clipPath>
</defs>
</svg>
