<svg width="633" height="1317" viewBox="0 0 633 1317" fill="none" xmlns="http://www.w3.org/2000/svg">
<g clip-path="url(#clip0_377_1185)">
<ellipse cx="289.832" cy="1179.34" rx="66" ry="17.5" transform="rotate(178.942 289.832 1179.34)" fill="#3FCC80"/>
<ellipse cx="235.838" cy="1180.14" rx="54" ry="11.5" transform="rotate(178.942 235.838 1180.14)" fill="#3FCC80"/>
<ellipse cx="165.905" cy="1184.43" rx="45" ry="14.5" transform="rotate(178.942 165.905 1184.43)" fill="#3FCC80"/>
<ellipse cx="204.539" cy="1164.21" rx="56" ry="18" transform="rotate(178.942 204.539 1164.21)" fill="#3FCC80"/>
<ellipse cx="245.724" cy="1200.96" rx="44.5" ry="14.5" transform="rotate(178.942 245.724 1200.96)" fill="#3FCC80"/>
<ellipse cx="398.221" cy="1198.93" rx="54" ry="11.5" fill="#3FCC80"/>
<ellipse cx="417.221" cy="1184.93" rx="54" ry="11.5" fill="#3FCC80"/>
<rect width="124.235" height="659" rx="62.1175" transform="matrix(-0.993914 -0.110156 -0.110156 0.993914 442.491 596.231)" fill="#2187FF"/>
<rect width="124.235" height="659" rx="62.1175" transform="matrix(-0.993914 -0.110156 -0.110156 0.993914 429.491 608.231)" fill="#3894FF"/>
<rect x="258.056" y="1098.55" width="12.1538" height="97.9503" rx="6.0769" transform="rotate(6.82254 258.056 1098.55)" fill="#C6E0FF"/>
<rect x="270.908" y="1134.55" width="12.1538" height="48.6225" rx="6.0769" transform="rotate(6.82254 270.908 1134.55)" fill="#C6E0FF"/>
<path fill-rule="evenodd" clip-rule="evenodd" d="M509.568 1031.28C508.338 1023.32 497.601 1021.66 494.024 1028.87L482.986 1051.14C481.552 1053.01 480.567 1055.23 480.189 1057.67C478.877 1066.15 485.394 1074.2 494.745 1075.65C504.097 1077.1 512.742 1071.39 514.055 1062.91C514.433 1060.46 514.162 1058.06 513.362 1055.84L509.568 1031.28Z" fill="#40D987" fill-opacity="0.95"/>
<path fill-rule="evenodd" clip-rule="evenodd" d="M86.6881 1098.28C85.4584 1090.32 74.721 1088.66 71.1437 1095.88L60.1059 1118.14C58.6719 1120.02 57.6872 1122.23 57.3095 1124.67C55.9968 1133.16 62.5137 1141.21 71.8654 1142.66C81.2171 1144.11 89.8623 1138.4 91.1749 1129.91C91.5526 1127.47 91.2822 1125.07 90.4825 1122.84L86.6881 1098.28Z" fill="#40D987" fill-opacity="0.95"/>
<path fill-rule="evenodd" clip-rule="evenodd" d="M200.688 1018.28C199.458 1010.32 188.721 1008.66 185.144 1015.88L174.106 1038.14C172.672 1040.02 171.687 1042.23 171.31 1044.67C169.997 1053.16 176.514 1061.21 185.865 1062.66C195.217 1064.11 203.862 1058.4 205.175 1049.91C205.553 1047.47 205.282 1045.07 204.482 1042.84L200.688 1018.28Z" fill="#40D987" fill-opacity="0.95"/>
<path fill-rule="evenodd" clip-rule="evenodd" d="M560.688 1149.84C559.458 1141.88 548.721 1140.22 545.144 1147.43L534.106 1169.7C532.672 1171.58 531.687 1173.79 531.31 1176.23C529.997 1184.71 536.514 1192.77 545.865 1194.21C555.217 1195.66 563.862 1189.95 565.175 1181.47C565.553 1179.03 565.282 1176.62 564.482 1174.4L560.688 1149.84Z" fill="#40D987" fill-opacity="0.95"/>
<ellipse cx="461.221" cy="1245.28" rx="66" ry="17.5" fill="#3FCC80"/>
<ellipse cx="556.221" cy="1227.28" rx="29" ry="11.5" fill="#3FCC80"/>
<ellipse cx="515.221" cy="1245.48" rx="54" ry="11.5" fill="#3FCC80"/>
<ellipse cx="515.221" cy="1245.48" rx="54" ry="11.5" fill="#3FCC80"/>
<ellipse cx="120.721" cy="1239.98" rx="38.5" ry="12" fill="#3FCC80"/>
<ellipse cx="72.7207" cy="1204.98" rx="38.5" ry="12" fill="#3FCC80"/>
<ellipse cx="84.2207" cy="1224.48" rx="84" ry="16.5" fill="#3FCC80"/>
<ellipse cx="561.721" cy="1257.28" rx="15.5" ry="5.5" fill="#3FCC80"/>
<ellipse cx="585.221" cy="1242.48" rx="45" ry="14.5" fill="#3FCC80"/>
<ellipse cx="546.221" cy="1261.98" rx="56" ry="18" fill="#3FCC80"/>
<ellipse cx="471.221" cy="1190.43" rx="56" ry="18" fill="#3FCC80"/>
<ellipse cx="321.221" cy="1298.43" rx="56" ry="18" fill="#3FCC80"/>
<ellipse cx="196.221" cy="1192.43" rx="33" ry="11" fill="#3FCC80"/>
<ellipse cx="505.721" cy="1224.48" rx="44.5" ry="14.5" fill="#3FCC80"/>
<path fill-rule="evenodd" clip-rule="evenodd" d="M79.5368 764.362L68.7063 860.276C65.4218 889.362 86.2829 916.055 115.301 919.895L519.55 973.398C572.111 980.354 619.543 943.285 625.492 890.6L632.565 827.959C630.208 827.218 627.858 826.355 625.523 825.367L485.186 765.951C474.538 761.443 463.089 759.128 451.526 759.146H451.488C436.445 767.448 418.397 770.779 399.719 766.973L361.977 759.282L318.703 759.349L236.522 785.58C200.601 797.046 164.125 780.482 147.172 750.58L79.5368 764.362Z" fill="#2CD479"/>
<path fill-rule="evenodd" clip-rule="evenodd" d="M41.5825 767.906L34.836 826.41C29.0153 876.885 65.145 923.098 115.534 929.628L508.796 980.596C544.396 985.209 576.591 960.04 580.703 924.378L593.675 811.883L485.187 765.951C474.538 761.443 463.09 759.128 451.526 759.146L451.487 759.146C436.445 767.448 418.397 770.779 399.719 766.973L361.977 759.282L318.703 759.349L236.522 785.58C200.601 797.046 164.125 780.482 147.172 750.58L66.7226 766.973C58.1321 768.723 49.6751 768.964 41.5825 767.906Z" fill="#40D987"/>
<path d="M291.986 658.548C296.74 652.941 305.81 654.778 308.008 661.793C308.397 663.034 309.041 664.18 309.899 665.157L311.66 667.164C315.91 672.007 316.592 679.023 313.355 684.594L309.361 691.467C308.713 692.583 308.211 693.778 307.869 695.022L305.38 704.062C303.894 709.461 297.704 711.994 292.859 709.187C291.241 708.249 289.36 707.868 287.504 708.102C281.949 708.804 277.232 704.062 277.963 698.511L279.188 689.215C279.356 687.935 279.359 686.639 279.196 685.359L278.19 677.473C277.376 671.082 280.733 664.884 286.532 662.076L288.935 660.912C290.106 660.345 291.145 659.54 291.986 658.548Z" fill="#2CD479" fill-opacity="0.9"/>
<path d="M351.522 721.794C352.668 717.829 357.986 717.128 360.121 720.661C360.443 721.195 360.868 721.66 361.371 722.029L362.395 722.78C365.661 725.178 367.36 729.165 366.828 733.182L366.089 738.763C366.002 739.418 365.984 740.081 366.034 740.739L366.633 748.561C366.845 751.335 364.239 753.478 361.558 752.734C360.508 752.443 359.385 752.591 358.446 753.144C356.05 754.558 352.977 753.163 352.463 750.429L351.015 742.719C350.893 742.07 350.703 741.435 350.45 740.825L348.289 735.626C346.734 731.884 347.342 727.593 349.875 724.431L350.669 723.439C351.059 722.953 351.349 722.394 351.522 721.794Z" fill="#2CD479" fill-opacity="0.9"/>
<ellipse cx="5.97496" cy="4.90213" rx="5.97496" ry="4.90213" transform="matrix(0.982026 -0.188748 0.246054 0.969256 290.289 851.682)" fill="#303030"/>
<path d="M247.269 817.976C252.551 813.343 260.449 813.343 265.731 817.976L268.779 820.649C270.126 821.83 271.727 822.687 273.458 823.154L277.513 824.246C284.176 826.04 286.55 834.268 281.868 839.337C280.453 840.868 279.602 842.837 279.455 844.917L279.411 845.534C278.949 852.071 272.882 856.737 266.445 855.507L259.129 854.108C257.392 853.776 255.608 853.776 253.871 854.108L246.555 855.507C240.118 856.737 234.051 852.071 233.589 845.534L233.545 844.917C233.398 842.837 232.547 840.868 231.132 839.337C226.45 834.268 228.824 826.04 235.487 824.246L239.542 823.154C241.273 822.687 242.874 821.83 244.221 820.649L247.269 817.976Z" fill="white"/>
<circle cx="6" cy="6" r="6" transform="matrix(0.982026 -0.188748 0.246054 0.969256 250 832.145)" fill="#303030"/>
<circle cx="1.5" cy="1.5" r="1.5" transform="matrix(0.982026 -0.188748 0.246054 0.969256 253 834.447)" fill="white"/>
<circle cx="0.5" cy="0.5" r="0.5" transform="matrix(0.982026 -0.188748 0.246054 0.969256 255 839.069)" fill="white"/>
<circle cx="1" cy="1" r="1" transform="matrix(0.982026 -0.188748 0.246054 0.969256 258 836.258)" fill="white"/>
<path d="M336.269 825.976C341.551 821.343 349.449 821.343 354.731 825.976L357.779 828.649C359.126 829.83 360.727 830.687 362.458 831.154L366.513 832.246C373.176 834.04 375.55 842.268 370.868 847.337C369.453 848.868 368.602 850.837 368.455 852.917L368.411 853.534C367.949 860.071 361.882 864.737 355.445 863.507L348.129 862.108C346.392 861.776 344.608 861.776 342.871 862.108L335.555 863.507C329.118 864.737 323.051 860.071 322.589 853.534L322.545 852.917C322.398 850.837 321.547 848.868 320.132 847.337C315.45 842.268 317.824 834.04 324.487 832.246L328.542 831.154C330.273 830.687 331.874 829.83 333.221 828.649L336.269 825.976Z" fill="white"/>
<circle cx="6" cy="6" r="6" transform="matrix(0.982026 -0.188748 0.246054 0.969256 339 840.145)" fill="#303030"/>
<circle cx="1.5" cy="1.5" r="1.5" transform="matrix(0.982026 -0.188748 0.246054 0.969256 342 842.447)" fill="white"/>
<circle cx="0.5" cy="0.5" r="0.5" transform="matrix(0.982026 -0.188748 0.246054 0.969256 344 847.069)" fill="white"/>
<circle cx="1" cy="1" r="1" transform="matrix(0.982026 -0.188748 0.246054 0.969256 347 844.258)" fill="white"/>
<path d="M250 870.88C254.504 871.699 257.769 878.022 262.704 878.163C269.256 878.35 274.711 873.065 281.356 873.065C286.116 873.065 288.114 875.167 292.401 876.545C297.672 878.239 301.671 878.891 307.169 878.891C312.91 878.891 318.271 877.435 323.879 877.435C328.923 877.435 329.572 879.43 333.751 881.643C337.215 883.476 339.602 883.914 343.582 883.301C345.36 883.028 346.561 881.804 348.316 881.804C349.605 881.804 351.37 882.25 351.958 881.076" stroke="#303030" stroke-width="7" stroke-linecap="round"/>
</g>
<defs>
<clipPath id="clip0_377_1185">
<rect width="632.345" height="1316.43" fill="white" transform="translate(0.220703)"/>
</clipPath>
</defs>
</svg>
