<svg width="742" height="1317" viewBox="0 0 742 1317" fill="none" xmlns="http://www.w3.org/2000/svg">
<ellipse cx="304.651" cy="965.819" rx="66" ry="17.5" transform="rotate(178.942 304.651 965.819)" fill="#3FCC80"/>
<ellipse cx="250.656" cy="966.616" rx="54" ry="11.5" transform="rotate(178.942 250.656 966.616)" fill="#3FCC80"/>
<ellipse cx="180.723" cy="970.908" rx="45" ry="14.5" transform="rotate(178.942 180.723 970.908)" fill="#3FCC80"/>
<ellipse cx="219.357" cy="950.691" rx="56" ry="18" transform="rotate(178.942 219.357 950.691)" fill="#3FCC80"/>
<ellipse cx="260.542" cy="987.437" rx="44.5" ry="14.5" transform="rotate(178.942 260.542 987.437)" fill="#3FCC80"/>
<ellipse cx="413.039" cy="985.406" rx="54" ry="11.5" fill="#3FCC80"/>
<ellipse cx="432.039" cy="971.406" rx="54" ry="11.5" fill="#3FCC80"/>
<ellipse cx="476.039" cy="1031.76" rx="66" ry="17.5" fill="#3FCC80"/>
<ellipse cx="571.039" cy="1013.76" rx="29" ry="11.5" fill="#3FCC80"/>
<ellipse cx="530.039" cy="1031.96" rx="54" ry="11.5" fill="#3FCC80"/>
<ellipse cx="530.039" cy="1031.96" rx="54" ry="11.5" fill="#3FCC80"/>
<ellipse cx="135.539" cy="1026.46" rx="38.5" ry="12" fill="#3FCC80"/>
<ellipse cx="87.5391" cy="991.46" rx="38.5" ry="12" fill="#3FCC80"/>
<ellipse cx="99.0391" cy="1010.96" rx="84" ry="16.5" fill="#3FCC80"/>
<ellipse cx="576.539" cy="1043.76" rx="15.5" ry="5.5" fill="#3FCC80"/>
<ellipse cx="600.039" cy="1028.96" rx="45" ry="14.5" fill="#3FCC80"/>
<ellipse cx="561.039" cy="1048.46" rx="56" ry="18" fill="#3FCC80"/>
<ellipse cx="486.039" cy="976.906" rx="56" ry="18" fill="#3FCC80"/>
<ellipse cx="336.039" cy="1084.91" rx="56" ry="18" fill="#3FCC80"/>
<ellipse cx="211.039" cy="978.906" rx="33" ry="11" fill="#3FCC80"/>
<ellipse cx="520.539" cy="1010.96" rx="44.5" ry="14.5" fill="#3FCC80"/>
<ellipse cx="432.039" cy="1011.03" rx="100" ry="27" fill="#3FCC80"/>
<ellipse cx="410.039" cy="1019.03" rx="100" ry="27" fill="#3FCC80"/>
<ellipse cx="203.039" cy="1003.53" rx="86" ry="23.5" fill="#3FCC80"/>
<ellipse cx="255.539" cy="1045.53" rx="103.5" ry="30.5" fill="#3FCC80"/>
<ellipse cx="405.539" cy="1059.03" rx="114.5" ry="28" fill="#3FCC80"/>
<rect width="124.235" height="659" rx="62.1175" transform="matrix(-0.466393 -0.884578 -0.884578 0.466393 688.084 880.453)" fill="#2187FF"/>
<rect width="124.235" height="659" rx="62.1175" transform="matrix(-0.466393 -0.884578 -0.884578 0.466393 670.858 876.423)" fill="#3894FF"/>
<rect x="168.791" y="1009.57" width="12.1538" height="97.9503" rx="6.0769" transform="rotate(62.6978 168.791 1009.57)" fill="#C6E0FF"/>
<rect x="146.2" y="1040.41" width="12.1538" height="48.6225" rx="6.0769" transform="rotate(62.6978 146.2 1040.41)" fill="#C6E0FF"/>
<path d="M567.205 819.484C574.514 820.274 578.082 828.812 573.508 834.568C572.699 835.586 572.111 836.762 571.783 838.02L571.11 840.604C569.485 846.839 564.06 851.339 557.632 851.785L549.702 852.334C548.414 852.424 547.144 852.679 545.921 853.093L537.042 856.105C531.739 857.903 526.169 854.2 525.775 848.615C525.644 846.749 524.904 844.978 523.669 843.573C519.972 839.369 521.251 832.803 526.257 830.294L534.639 826.093C535.793 825.515 536.867 824.79 537.836 823.936L543.799 818.68C548.633 814.42 555.647 813.723 561.225 816.948L563.537 818.285C564.662 818.936 565.912 819.344 567.205 819.484Z" fill="#2CD479" fill-opacity="0.9"/>
<path d="M404.112 920.198C414.262 918.678 422.048 929.027 417.775 938.358C417.027 939.991 416.628 941.762 416.603 943.558L416.489 951.737C416.4 958.106 412.298 963.724 406.259 965.749L390.54 971.02C389.335 971.424 388.186 971.98 387.122 972.673L375.117 980.493C368.627 984.72 359.894 981.636 357.499 974.27C356.689 971.78 355.073 969.631 352.904 968.163C346.491 963.821 345.947 954.575 351.807 949.51L362.646 940.143C363.608 939.312 364.46 938.362 365.182 937.316L374.602 923.673C378.221 918.431 384.756 916.047 390.901 917.727L398.791 919.883C400.523 920.357 402.336 920.464 404.112 920.198Z" fill="#2CD479" fill-opacity="0.9"/>
<path d="M324.714 1050.65C334.841 1052.32 339.076 1064.55 332.146 1072.12C330.934 1073.45 330.01 1075.01 329.435 1076.71L326.818 1084.46C324.779 1090.5 319.151 1094.59 312.782 1094.66L296.204 1094.86C294.933 1094.87 293.67 1095.05 292.443 1095.38L278.619 1099.14C271.145 1101.17 263.779 1095.56 263.76 1087.81C263.753 1085.19 262.873 1082.65 261.26 1080.59C256.488 1074.49 258.807 1065.52 265.938 1062.5L279.129 1056.91C280.299 1056.41 281.401 1055.77 282.409 1055L295.561 1044.9C300.614 1041.02 307.565 1040.76 312.898 1044.24L319.746 1048.72C321.25 1049.7 322.942 1050.36 324.714 1050.65Z" fill="#3FCC80"/>
<path d="M219.704 990.302C211.151 984.631 212.303 971.732 221.727 967.667C223.376 966.955 224.859 965.908 226.081 964.591L231.645 958.596C235.977 953.927 242.786 952.503 248.627 955.046L263.828 961.663C264.993 962.17 266.218 962.528 267.474 962.726L281.624 964.963C289.275 966.172 293.692 974.313 290.535 981.386C289.468 983.777 289.229 986.456 289.855 988.998C291.708 996.518 285.918 1003.75 278.174 1003.58L263.851 1003.27C262.58 1003.25 261.312 1003.38 260.075 1003.67L243.941 1007.49C237.743 1008.96 231.294 1006.35 227.857 1000.99L223.444 994.101C222.475 992.588 221.201 991.295 219.704 990.302Z" fill="#3FCC80"/>
<path d="M213.705 966.303C205.151 960.632 206.303 947.732 215.727 943.667C217.377 942.956 218.859 941.908 220.081 940.592L225.645 934.596C229.978 929.927 236.787 928.504 242.627 931.046L257.829 937.664C258.994 938.171 260.219 938.528 261.474 938.726L275.625 940.963C283.275 942.172 287.692 950.313 284.536 957.386C283.469 959.777 283.229 962.456 283.856 964.999C285.708 972.519 279.918 979.748 272.175 979.582L257.851 979.275C256.581 979.247 255.312 979.382 254.075 979.674L237.942 983.492C231.743 984.959 225.294 982.351 221.858 976.988L217.445 970.101C216.476 968.589 215.202 967.295 213.705 966.303Z" fill="#3FCC80"/>
<path d="M522.705 999.303C514.151 993.632 515.303 980.732 524.727 976.667C526.377 975.956 527.859 974.908 529.081 973.592L534.645 967.596C538.978 962.927 545.787 961.504 551.627 964.046L566.829 970.664C567.994 971.171 569.219 971.528 570.474 971.726L584.625 973.963C592.275 975.172 596.692 983.313 593.536 990.386C592.469 992.777 592.229 995.456 592.856 997.999C594.708 1005.52 588.918 1012.75 581.175 1012.58L566.851 1012.27C565.581 1012.25 564.312 1012.38 563.075 1012.67L546.942 1016.49C540.743 1017.96 534.294 1015.35 530.858 1009.99L526.445 1003.1C525.476 1001.59 524.202 1000.3 522.705 999.303Z" fill="#3FCC80"/>
<path d="M548.248 904.25C552.173 902.974 555.737 906.983 554.01 910.732C553.749 911.298 553.602 911.911 553.579 912.534L553.531 913.804C553.378 917.852 551.031 921.496 547.408 923.309L542.372 925.828C541.781 926.123 541.223 926.48 540.706 926.891L534.567 931.775C532.39 933.507 529.153 932.552 528.265 929.915C527.918 928.882 527.165 928.035 526.18 927.569C523.666 926.378 523.096 923.052 525.072 921.093L530.641 915.569C531.11 915.103 531.529 914.59 531.892 914.038L534.984 909.333C537.209 905.947 541.103 904.043 545.141 904.366L546.407 904.467C547.029 904.517 547.655 904.443 548.248 904.25Z" fill="#2CD479" fill-opacity="0.9"/>
<ellipse cx="405.539" cy="1059.03" rx="114.5" ry="28" fill="#3FCC80"/>
<ellipse cx="141.539" cy="994.026" rx="114.5" ry="28" fill="#3FCC80"/>
<ellipse cx="485.539" cy="1018.03" rx="114.5" ry="28" fill="#3FCC80"/>
</svg>
