<svg width="149" height="264" viewBox="0 0 149 264" fill="none" xmlns="http://www.w3.org/2000/svg">
<rect width="24.8603" height="131.871" rx="12.4301" transform="matrix(-0.993914 -0.110156 -0.110156 0.993914 83.4988 129.957)" fill="#2187FF"/>
<rect width="24.8603" height="131.871" rx="12.4301" transform="matrix(-0.993914 -0.110156 -0.110156 0.993914 80.8973 132.358)" fill="#3894FF"/>
<path d="M23.284 57.9312C26.8073 27.3783 54.3888 5.81479 84.8891 9.76765V9.76765C115.389 13.7205 137.259 41.693 133.735 72.2458L120.349 188.333C119.133 198.873 109.618 206.311 99.0969 204.948L18.2143 194.465C12.4055 193.713 8.24053 188.385 8.91154 182.566L23.284 57.9312Z" fill="#2CD479"/>
<path d="M16.006 55.0202C19.5101 24.6334 46.9416 3.18701 77.2761 7.11839V7.11839C107.611 11.0498 129.361 38.8701 125.857 69.2569L111.341 195.136C110.518 202.272 104.076 207.309 96.9517 206.386L18.2572 196.187C8.174 194.88 0.944207 185.632 2.10897 175.532L16.006 55.0202Z" fill="#40D987"/>
<circle cx="49.4215" cy="105.652" r="6.00321" transform="rotate(-8.20756 49.4215 105.652)" fill="#303030"/>
<circle cx="64.572" cy="113.272" r="1.5008" transform="rotate(-8.20756 64.572 113.272)" fill="#303030"/>
<circle cx="82.6781" cy="109.144" r="6.00321" transform="rotate(-8.20756 82.6781 109.144)" fill="#303030"/>
<path d="M71.707 119.34C72.1213 119.706 72.1639 120.342 71.7588 120.718C70.8504 121.56 69.7913 122.229 68.6339 122.686C67.1656 123.267 65.5807 123.492 64.0088 123.342C62.4369 123.193 60.9227 122.674 59.59 121.827C58.5395 121.16 57.6253 120.304 56.8919 119.305C56.5647 118.86 56.7265 118.243 57.2022 117.962V117.962C57.678 117.681 58.2868 117.843 58.625 118.28C59.1903 119.011 59.8792 119.64 60.6631 120.138C61.7293 120.815 62.9406 121.231 64.1981 121.35C65.4556 121.47 66.7235 121.29 67.8982 120.825C68.7618 120.484 69.557 119.996 70.2497 119.385C70.6641 119.02 71.2927 118.975 71.707 119.34V119.34Z" fill="#303030"/>
<rect x="46.5919" y="230.474" width="2.43206" height="19.6006" rx="1.21603" transform="rotate(6.82254 46.5919 230.474)" fill="#C6E0FF"/>
<rect x="49.1638" y="237.678" width="2.43206" height="9.72971" rx="1.21603" transform="rotate(6.82254 49.1638 237.678)" fill="#C6E0FF"/>
<path d="M33.7992 48.5361C30.8488 47.0235 29.6586 43.3855 31.4581 40.6008C36.1275 33.3752 42.297 27.2363 49.5458 22.6028C52.3393 20.8171 55.9714 22.0254 57.4693 24.9833V24.9833C58.9671 27.9411 57.7568 31.5234 55.0088 33.3783C49.9744 36.7766 45.6296 41.0999 42.2064 46.1173C40.3378 48.8561 36.7496 50.0486 33.7992 48.5361V48.5361Z" fill="white" fill-opacity="0.85"/>
</svg>
