<svg width="677" height="1317" viewBox="0 0 677 1317" fill="none" xmlns="http://www.w3.org/2000/svg">
<g clip-path="url(#clip0_377_1143)">
<rect width="124.235" height="659" rx="62.1175" transform="matrix(-0.993914 -0.110156 -0.110156 0.993914 443.223 632.677)" fill="#2187FF"/>
<rect width="124.235" height="659" rx="62.1175" transform="matrix(-0.993914 -0.110156 -0.110156 0.993914 430.223 644.677)" fill="#3894FF"/>
<path fill-rule="evenodd" clip-rule="evenodd" d="M112.552 514.913L69.438 896.722C66.1534 925.808 87.0147 952.501 116.033 956.341L520.282 1009.84C572.842 1016.8 620.274 979.731 626.224 927.046L676.221 484.282C673.961 483.65 671.698 482.754 669.457 481.57L626.235 458.74C613.535 452.032 598.586 451.027 585.102 455.975L539.213 472.812C529.722 476.294 520.494 475.199 512.967 471.21C510.792 470.582 508.614 469.709 506.457 468.57L463.235 445.74C450.535 439.032 435.586 438.027 422.102 442.975L376.213 459.812C365.2 463.853 354.54 461.729 346.483 456.075L341.193 462.429C323.45 483.743 290.212 474.122 284.622 449.122C278.315 453.052 270.471 454.865 261.827 453.298L245.365 450.316C231.709 447.841 217.776 452.905 208.897 463.572L198.193 476.429C198.117 476.52 198.041 476.611 197.964 476.702C198.867 495.961 181.92 514.332 159.658 510.298L143.197 507.316C132.243 505.331 121.111 508.196 112.552 514.913Z" fill="#2CD479"/>
<path fill-rule="evenodd" clip-rule="evenodd" d="M72.2022 545.169L35.5677 862.856C29.747 913.332 65.8765 959.544 116.265 966.075L509.528 1017.04C545.128 1021.66 577.322 996.486 581.435 960.824L638.581 465.262L626.235 458.741C613.535 452.032 598.585 451.027 585.102 455.975L539.213 472.812C529.722 476.294 520.494 475.199 512.967 471.21C510.792 470.583 508.614 469.709 506.456 468.57L463.235 445.741C450.535 439.032 435.585 438.027 422.102 442.975L376.213 459.812C365.2 463.853 354.54 461.729 346.483 456.075L341.193 462.429C323.45 483.743 290.212 474.122 284.622 449.122C278.315 453.053 270.471 454.865 261.826 453.298L245.365 450.315C231.708 447.841 217.776 452.905 208.896 463.572L198.193 476.429L198.121 476.515C198.069 476.578 198.016 476.64 197.964 476.702C198.867 495.961 181.92 514.332 159.658 510.298L143.197 507.315C129.54 504.841 115.608 509.905 106.728 520.572L96.0248 533.429C89.4727 541.3 80.8077 544.952 72.2022 545.169Z" fill="#40D987"/>
<rect x="258.787" y="1134.99" width="12.1538" height="97.9503" rx="6.0769" transform="rotate(6.82254 258.787 1134.99)" fill="#C6E0FF"/>
<rect x="271.64" y="1170.99" width="12.1538" height="48.6225" rx="6.0769" transform="rotate(6.82254 271.64 1170.99)" fill="#C6E0FF"/>
<circle cx="344.64" cy="678.498" r="7.5" transform="rotate(-8.20756 344.64 678.498)" fill="#303030"/>
<path d="M306.512 726.13C304.38 724.375 304.058 721.203 306.017 719.257C310.409 714.894 315.583 711.374 321.285 708.89C328.519 705.739 336.396 704.344 344.272 704.82C352.148 705.296 359.8 707.63 366.602 711.63C371.963 714.783 376.676 718.9 380.51 723.761C382.221 725.928 381.519 729.038 379.191 730.524C376.863 732.009 373.794 731.301 372.03 729.177C369.082 725.626 365.533 722.602 361.532 720.25C356.091 717.05 349.97 715.183 343.669 714.802C337.368 714.421 331.066 715.537 325.279 718.058C321.025 719.911 317.137 722.486 313.783 725.656C311.776 727.552 308.644 727.885 306.512 726.13Z" fill="#303030"/>
<path d="M239.177 627.894C238.658 629.638 238.255 631.439 237.979 633.29C234.813 654.502 249.442 674.265 270.655 677.431C289.994 680.317 308.129 668.411 313.579 650.211L239.177 627.894Z" fill="white"/>
<path d="M251.349 631.545C251.311 631.761 251.276 631.978 251.243 632.197C249.133 646.338 258.886 659.513 273.027 661.624C284.884 663.393 296.061 656.824 300.607 646.32L251.349 631.545Z" fill="#303030"/>
<path d="M372.613 658.75C372.975 660.532 373.467 662.311 374.094 664.074C381.279 684.282 403.485 694.84 423.693 687.655C442.117 681.104 452.519 662.067 448.767 643.442L372.613 658.75Z" fill="white"/>
<path d="M385.071 656.245C385.139 656.454 385.211 656.662 385.284 656.87C390.074 670.342 404.879 677.38 418.351 672.59C429.646 668.574 436.418 657.519 435.489 646.111L385.071 656.245Z" fill="#303030"/>
<path fill-rule="evenodd" clip-rule="evenodd" d="M72.6957 1201.37C70.8845 1193.53 60.0541 1192.66 57.0167 1200.12L47.6445 1223.13C46.3524 1225.11 45.5328 1227.39 45.3356 1229.85C44.6499 1238.41 51.7408 1245.96 61.1735 1246.72C70.6062 1247.47 78.8087 1241.15 79.4944 1232.59C79.6917 1230.13 79.2452 1227.75 78.2843 1225.59L72.6957 1201.37Z" fill="#40D987" fill-opacity="0.95"/>
<path fill-rule="evenodd" clip-rule="evenodd" d="M137.369 978.24C136.425 969.092 124.643 965.5 121.954 973.541L110.822 1006.84C109.39 1009.58 108.408 1012.86 108.036 1016.53C106.741 1029.28 113.292 1041.93 122.668 1044.79C132.043 1047.65 140.693 1039.63 141.988 1026.88C142.36 1023.21 142.083 1019.54 141.277 1016.12L137.369 978.24Z" fill="#40D987" fill-opacity="0.95"/>
<path fill-rule="evenodd" clip-rule="evenodd" d="M510.3 1067.72C509.07 1059.76 498.332 1058.1 494.755 1065.32L483.717 1087.58C482.283 1089.46 481.299 1091.67 480.921 1094.11C479.608 1102.6 486.125 1110.65 495.477 1112.1C504.829 1113.54 513.474 1107.84 514.786 1099.35C515.164 1096.91 514.894 1094.5 514.094 1092.28L510.3 1067.72Z" fill="#40D987" fill-opacity="0.95"/>
<path fill-rule="evenodd" clip-rule="evenodd" d="M561.42 1186.28C560.19 1178.32 549.453 1176.66 545.875 1183.88L534.838 1206.14C533.404 1208.02 532.419 1210.23 532.041 1212.67C530.728 1221.16 537.245 1229.21 546.597 1230.66C555.949 1232.11 564.594 1226.4 565.907 1217.91C566.284 1215.47 566.014 1213.07 565.214 1210.84L561.42 1186.28Z" fill="#40D987" fill-opacity="0.95"/>
<ellipse cx="461.952" cy="1281.73" rx="66" ry="17.5" fill="#3FCC80"/>
<ellipse cx="556.952" cy="1263.73" rx="29" ry="11.5" fill="#3FCC80"/>
<ellipse cx="515.952" cy="1281.93" rx="54" ry="11.5" fill="#3FCC80"/>
<ellipse cx="121.452" cy="1276.43" rx="38.5" ry="12" fill="#3FCC80"/>
<ellipse cx="73.4524" cy="1241.43" rx="38.5" ry="12" fill="#3FCC80"/>
<ellipse cx="84.9524" cy="1260.93" rx="84" ry="16.5" fill="#3FCC80"/>
<ellipse cx="562.452" cy="1293.73" rx="15.5" ry="5.5" fill="#3FCC80"/>
<ellipse cx="585.952" cy="1278.93" rx="45" ry="14.5" fill="#3FCC80"/>
<ellipse cx="546.952" cy="1298.43" rx="56" ry="18" fill="#3FCC80"/>
<ellipse cx="506.452" cy="1260.93" rx="44.5" ry="14.5" fill="#3FCC80"/>
</g>
<defs>
<clipPath id="clip0_377_1143">
<rect width="675.268" height="1316.43" fill="white" transform="translate(0.952393)"/>
</clipPath>
</defs>
</svg>
