<svg width="123" height="232" viewBox="0 0 123 232" fill="none" xmlns="http://www.w3.org/2000/svg">
<rect width="23.5459" height="124.898" rx="11.773" transform="matrix(-0.993914 -0.110156 -0.110156 0.993914 77.3784 105.144)" fill="#2187FF"/>
<rect width="23.5459" height="124.898" rx="11.773" transform="matrix(-0.993914 -0.110156 -0.110156 0.993914 74.9146 107.418)" fill="#3894FF"/>
<path fill-rule="evenodd" clip-rule="evenodd" d="M32.6428 51.5092C30.617 53.6872 27.3007 54.5817 24.2472 53.1493L23.9328 53.0018C22.002 52.0961 19.8651 52.1633 18.0747 53.0031L6.53593 155.188C5.91344 160.7 9.86721 165.759 15.3669 166.487L91.9831 176.627C101.945 177.946 110.934 170.92 112.062 160.935L123 64.0704C119.112 68.1137 112.622 65.7995 111.384 61.0048L109.503 64.2094C106.736 68.9207 99.9478 68.9873 97.0896 64.3311L96.9079 64.0351C94.9136 60.7864 90.6612 59.7731 87.4162 61.7733C83.009 64.4899 78.2164 61.6851 77.0958 57.6704C75.4847 57.4896 73.8995 56.7994 72.5891 55.5372L72.127 55.0921C69.7458 52.7985 66.0838 52.4858 63.3482 54.3424C59.1329 57.2033 54.1233 54.7692 52.754 50.7762C50.8805 51.1462 48.8812 50.7795 47.2534 49.6714C47.1895 49.6698 47.1254 49.6653 47.0614 49.6577L45.6519 49.4911C44.7798 49.388 44.3606 48.3536 44.3817 47.4757C44.3955 46.9027 44.2016 46.3884 43.8169 45.9777C43.4323 45.567 42.8686 45.2724 42.1751 45.1196C41.4815 44.9667 40.6792 44.9603 39.8382 45.1009C38.9971 45.2415 38.1429 45.5248 37.35 45.9261C36.5572 46.3274 35.8498 46.8344 35.2897 47.4031C34.7296 47.9717 34.3337 48.5845 34.1366 49.1881C33.8497 50.067 33.4712 51.1148 32.6428 51.5092Z" fill="#2CD479"/>
<path fill-rule="evenodd" clip-rule="evenodd" d="M32.6428 51.5093C30.617 53.6872 27.3007 54.5817 24.2472 53.1493L23.9328 53.0018C20.4817 51.3829 16.3718 52.8724 14.7593 56.3265C13.7833 58.4171 12.141 59.6336 10.3419 60.0974L0.116617 148.769C-0.986562 158.336 5.86099 167.094 15.411 168.332L89.9449 177.992C96.6922 178.866 102.794 174.096 103.573 167.337L115.314 65.5254C113.444 64.6948 111.921 63.0827 111.384 61.0048L109.503 64.2094C106.737 68.9207 99.9478 68.9873 97.0896 64.3311L96.9079 64.0351C94.9137 60.7864 90.6613 59.7731 87.4163 61.7733C83.0091 64.4899 78.2165 61.6851 77.0959 57.6703C75.4847 57.4896 73.8995 56.7994 72.5892 55.5372L72.127 55.0921C69.7458 52.7985 66.0839 52.4858 63.3483 54.3424C59.1329 57.2033 54.1233 54.7692 52.7541 50.7762C50.8805 51.1462 48.8812 50.7796 47.2534 49.6714C47.1896 49.6698 47.1255 49.6653 47.0614 49.6577L45.652 49.4911C44.7799 49.388 44.3606 48.3536 44.3817 47.4757C44.3955 46.9027 44.2016 46.3884 43.817 45.9777C43.4323 45.567 42.8686 45.2724 42.1751 45.1196C41.4816 44.9667 40.6792 44.9603 39.8382 45.1009C38.9971 45.2415 38.1429 45.5248 37.3501 45.9261C36.5572 46.3274 35.8498 46.8344 35.2897 47.4031C34.7296 47.9717 34.3337 48.5845 34.1366 49.1881C33.8497 50.067 33.4712 51.1148 32.6428 51.5093Z" fill="#40D987"/>
<rect x="42.4229" y="200.346" width="2.30348" height="18.5643" rx="1.15174" transform="rotate(6.82254 42.4229 200.346)" fill="#C6E0FF"/>
<rect x="44.8588" y="207.169" width="2.30348" height="9.21529" rx="1.15174" transform="rotate(6.82254 44.8588 207.169)" fill="#C6E0FF"/>
<circle cx="58.3151" cy="98.4386" r="1.42145" transform="rotate(-8.20756 58.3151 98.4386)" fill="#303030"/>
<path d="M47.9504 104.114C48.8042 104.269 49.4228 105.467 50.3582 105.494C51.6 105.529 52.6338 104.528 53.8933 104.528C54.7953 104.528 55.1741 104.926 55.9867 105.187C56.9856 105.508 57.7435 105.632 58.7855 105.632C59.8736 105.632 60.8897 105.356 61.9525 105.356C62.9085 105.356 63.0315 105.734 63.8235 106.153C64.48 106.501 64.9324 106.584 65.6869 106.468C66.0238 106.416 66.2514 106.184 66.584 106.184C66.8283 106.184 67.1629 106.268 67.2742 106.046" stroke="#303030" stroke-width="1.32669" stroke-linecap="round"/>
<path d="M80.8453 101.854C81.3747 100.89 81.0232 99.6804 80.06 99.151L73.7318 95.6723L80.6274 93.3025C81.6668 92.9453 82.2199 91.8131 81.8627 90.7738C81.5054 89.7344 80.3733 89.1813 79.3339 89.5385L68.4004 93.296C67.8705 93.4781 67.467 93.8617 67.2461 94.3316C67.2393 94.3433 67.2327 94.3551 67.2261 94.367C66.6967 95.3302 67.0483 96.5402 68.0114 97.0696L78.1427 102.639C79.1059 103.168 80.3159 102.817 80.8453 101.854Z" fill="#303030"/>
<path d="M40.4064 84.4241C39.7393 85.2976 39.9066 86.5464 40.7801 87.2135L46.5191 91.5966L39.3473 92.9121C38.2663 93.1104 37.5507 94.1475 37.7489 95.2285C37.9472 96.3096 38.9843 97.0252 40.0654 96.8269L51.4368 94.741C51.9879 94.6399 52.4441 94.3208 52.7326 93.889C52.741 93.8785 52.7493 93.8678 52.7576 93.857C53.4246 92.9835 53.2573 91.7347 52.3839 91.0676L43.1958 84.0504C42.3224 83.3833 41.0735 83.5507 40.4064 84.4241Z" fill="#303030"/>
<path fill-rule="evenodd" clip-rule="evenodd" d="M102.425 88.5345C102.226 85.6045 98.3768 84.6672 96.8528 87.1776L92.1503 94.9236C91.571 95.561 91.1444 96.3339 90.9313 97.2092C90.1905 100.251 92.3079 103.379 95.6604 104.196C99.013 105.012 102.331 103.208 103.072 100.165C103.285 99.2902 103.262 98.4078 103.04 97.5753L102.425 88.5345Z" fill="#A3EEC6" fill-opacity="0.95"/>
<path fill-rule="evenodd" clip-rule="evenodd" d="M18.7145 203.413C18.3712 201.926 16.3186 201.761 15.7429 203.175L13.9666 207.537C13.7217 207.912 13.5664 208.344 13.529 208.81C13.3991 210.433 14.743 211.864 16.5308 212.007C18.3185 212.15 19.8731 210.951 20.0031 209.329C20.0405 208.862 19.9558 208.411 19.7737 208.002L18.7145 203.413Z" fill="#40D987" fill-opacity="0.95"/>
<path fill-rule="evenodd" clip-rule="evenodd" d="M90.0912 187.597C89.8582 186.088 87.8231 185.774 87.1451 187.141L85.0532 191.361C84.7814 191.717 84.5947 192.136 84.5232 192.599C84.2744 194.207 85.5095 195.733 87.2819 196.007C89.0543 196.281 90.6928 195.2 90.9416 193.592C91.0132 193.129 90.9619 192.673 90.8104 192.252L90.0912 187.597Z" fill="#40D987" fill-opacity="0.95"/>
<ellipse cx="80.9281" cy="228.156" rx="12.5088" ry="3.31673" fill="#3FCC80"/>
<ellipse cx="98.9333" cy="224.745" rx="5.49629" ry="2.17956" fill="#3FCC80"/>
<ellipse cx="16.7731" cy="228.062" rx="7.2968" ry="3.22196" fill="#3FCC80"/>
<ellipse cx="99.9756" cy="230.431" rx="2.93767" ry="1.0424" fill="#3FCC80"/>
</svg>
