<svg width="32" height="32" viewBox="0 0 32 32" fill="none" xmlns="http://www.w3.org/2000/svg">
<rect width="32" height="32" rx="2.56" fill="#002F76"/>
<path d="M4.49248 11.6853H10.162V12.6803H5.73152V13.9569C5.73152 14.0382 5.77532 14.0789 5.86293 14.0789H10.2559V15.0645H8.01248V15.9187H11.3447V16.8949H3.38485V15.9187H6.75467V15.0645H5.34667C5.04629 15.0645 4.82727 14.9956 4.6896 14.858C4.55819 14.714 4.49248 14.4919 4.49248 14.1915V11.6853ZM10.3967 19.8986H5.36544C4.78347 19.8986 4.49248 19.6108 4.49248 19.035V17.4018H5.74091V18.7628C5.74091 18.8504 5.78471 18.8942 5.87232 18.8942H10.3967V19.8986ZM15.0871 19.9268V17.1577H11.7361V16.1627H19.6959V17.1577H16.3449V19.9268H15.0871ZM12.8249 11.7604H18.5508V12.7741H14.0733V14.1164C14.0733 14.2604 14.1422 14.3323 14.2798 14.3323H18.6353V15.3367H13.7448C13.4444 15.3367 13.216 15.2647 13.0596 15.1208C12.9031 14.9706 12.8249 14.7516 12.8249 14.4637V11.7604ZM25.9164 11.4975V13.2341H26.4796V11.4506H27.6905V16.7541H26.4796V14.2385H25.9164V16.2472H24.7055V11.4975H25.9164ZM20.7068 11.6853H23.9358V12.6897H21.9364V14.9049C21.9364 14.9612 21.9677 14.9894 22.0303 14.9894C22.168 14.9894 22.3244 14.9831 22.4996 14.9706C22.6748 14.9581 22.8501 14.9456 23.0253 14.9331C23.2068 14.9206 23.3851 14.9049 23.5603 14.8861C23.7355 14.8674 23.8982 14.8517 24.0484 14.8392C24.1673 14.8267 24.2612 14.858 24.33 14.9331C24.3989 15.0019 24.4395 15.0833 24.4521 15.1771C24.4708 15.271 24.4583 15.3649 24.4145 15.4587C24.3707 15.5463 24.2925 15.6058 24.1798 15.6371C24.0109 15.6809 23.8231 15.7278 23.6166 15.7779C23.4101 15.8217 23.1942 15.8655 22.969 15.9093C22.7437 15.9468 22.5153 15.9812 22.2837 16.0125C22.0522 16.0438 21.83 16.0689 21.6173 16.0876C21.3232 16.1189 21.0979 16.0595 20.9414 15.9093C20.785 15.7591 20.7068 15.5338 20.7068 15.2334V11.6853ZM21.6454 19.3166C22.0021 19.1665 22.3275 18.9912 22.6217 18.791C22.9158 18.5907 23.1692 18.3811 23.382 18.1621C23.5947 17.9368 23.7574 17.7084 23.8701 17.4769C23.989 17.2453 24.0484 17.0232 24.0484 16.8104V16.51H25.3719V16.8667C25.3719 17.0983 25.3031 17.358 25.1654 17.6458L27.6435 18.9318C27.7875 19.0069 27.8625 19.1133 27.8688 19.2509C27.8751 19.3886 27.8406 19.5294 27.7655 19.6733C27.6779 19.836 27.5622 19.9424 27.4182 19.9925C27.2743 20.0488 27.1366 20.0332 27.0052 19.9455L24.6773 18.378C24.3582 18.7409 23.9577 19.0726 23.4758 19.373C22.994 19.6733 22.4746 19.8892 21.9177 20.0206C21.7862 20.0519 21.6767 20.0394 21.5891 19.9831C21.5015 19.933 21.4421 19.8642 21.4108 19.7766C21.3857 19.6952 21.3889 19.6108 21.4202 19.5231C21.4577 19.4355 21.5328 19.3667 21.6454 19.3166Z" fill="#F9FAFB"/>
</svg>
