<svg width="32" height="32" viewBox="0 0 32 32" fill="none" xmlns="http://www.w3.org/2000/svg">
<rect width="32" height="32" rx="2.56" fill="#002F76"/>
<path d="M5.04629 17.3924V18.622H10.2559C10.381 18.622 10.4843 18.6658 10.5657 18.7534C10.6533 18.841 10.6971 18.9412 10.6971 19.0538C10.6971 19.1727 10.6533 19.2728 10.5657 19.3542C10.4843 19.4418 10.381 19.4856 10.2559 19.4856H4.53003C4.37984 19.4856 4.25468 19.4355 4.15456 19.3354C4.06069 19.2353 4.01376 19.1195 4.01376 18.9881V17.3924C4.01376 17.261 4.06069 17.1452 4.15456 17.0451C4.25468 16.9449 4.37984 16.8949 4.53003 16.8949C4.67396 16.8949 4.79598 16.9449 4.89611 17.0451C4.99623 17.1452 5.04629 17.261 5.04629 17.3924ZM5.20587 12.5676V14.0695H10.0869C10.2121 14.0695 10.3153 14.1133 10.3967 14.2009C10.4843 14.2823 10.5281 14.3824 10.5281 14.5013C10.5281 14.6139 10.4843 14.714 10.3967 14.8017C10.3153 14.8893 10.2121 14.9331 10.0869 14.9331H7.87168V15.4681H10.8942C11.0193 15.4681 11.1226 15.5119 11.2039 15.5995C11.2916 15.6871 11.3354 15.7873 11.3354 15.8999C11.3354 16.0188 11.2916 16.122 11.2039 16.2097C11.1226 16.291 11.0193 16.3317 10.8942 16.3317H3.81664C3.69148 16.3317 3.5851 16.291 3.49749 16.2097C3.41614 16.122 3.37547 16.0188 3.37547 15.8999C3.37547 15.7873 3.41614 15.6871 3.49749 15.5995C3.5851 15.5119 3.69148 15.4681 3.81664 15.4681H6.83915V14.9331H4.6896C4.54567 14.9331 4.42364 14.883 4.32352 14.7829C4.22965 14.6828 4.18272 14.5639 4.18272 14.4262V12.2109C4.18272 12.0795 4.22965 11.9638 4.32352 11.8636C4.42364 11.7572 4.54567 11.7041 4.6896 11.7041H10.0869C10.2121 11.7041 10.3153 11.7479 10.3967 11.8355C10.4843 11.9231 10.5281 12.0232 10.5281 12.1358C10.5281 12.2547 10.4843 12.358 10.3967 12.4456C10.3153 12.527 10.2121 12.5676 10.0869 12.5676H5.20587ZM13.4543 12.5864V14.3605H18.4949C18.6201 14.3605 18.7264 14.4043 18.814 14.4919C18.9017 14.5795 18.9455 14.6796 18.9455 14.7923C18.9455 14.9049 18.9017 15.005 18.814 15.0926C18.7264 15.1802 18.6201 15.2241 18.4949 15.2241H12.938C12.7878 15.2241 12.6626 15.174 12.5625 15.0739C12.4687 14.9737 12.4217 14.858 12.4217 14.7266V12.2203C12.4217 12.0889 12.4687 11.9731 12.5625 11.873C12.6626 11.7729 12.7878 11.7228 12.938 11.7228H18.4949C18.6201 11.7228 18.7264 11.7666 18.814 11.8542C18.9017 11.9418 18.9455 12.042 18.9455 12.1546C18.9455 12.2673 18.9017 12.3674 18.814 12.455C18.7264 12.5426 18.6201 12.5864 18.4949 12.5864H13.4543ZM15.172 18.9881V16.8479H12.1495C12.0244 16.8479 11.918 16.8073 11.8304 16.7259C11.749 16.6383 11.7083 16.5351 11.7083 16.4162C11.7083 16.3035 11.749 16.2034 11.8304 16.1158C11.918 16.0282 12.0244 15.9844 12.1495 15.9844H19.2271C19.3522 15.9844 19.4555 16.0282 19.5368 16.1158C19.6244 16.2034 19.6682 16.3035 19.6682 16.4162C19.6682 16.5351 19.6244 16.6383 19.5368 16.7259C19.4555 16.8073 19.3522 16.8479 19.2271 16.8479H16.2045V18.9881C16.2045 19.1195 16.1545 19.2353 16.0544 19.3354C15.9542 19.4355 15.8322 19.4856 15.6883 19.4856C15.5444 19.4856 15.4223 19.4355 15.3222 19.3354C15.2221 19.2353 15.172 19.1195 15.172 18.9881ZM25.2039 18.378C25.0662 18.3529 24.9567 18.2966 24.8753 18.209C24.794 18.1151 24.7533 18.0056 24.7533 17.8805C24.7533 17.7428 24.8002 17.6239 24.8941 17.5238C24.988 17.4237 25.11 17.3736 25.2602 17.3736C25.329 17.3736 25.3916 17.383 25.4479 17.4018C26.4617 17.577 27.1469 18.0275 27.5036 18.7534C27.5411 18.8536 27.5599 18.9287 27.5599 18.9787C27.5599 19.1164 27.5099 19.2322 27.4097 19.326C27.3159 19.4262 27.1938 19.4762 27.0437 19.4762C26.8434 19.4762 26.6901 19.3855 26.5837 19.204C26.3146 18.7534 25.8547 18.4781 25.2039 18.378ZM20.9235 19.326C20.8234 19.2259 20.7734 19.1101 20.7734 18.9787C20.7734 18.8473 20.8172 18.7347 20.9048 18.6408C20.9924 18.5532 21.105 18.5 21.2427 18.4812C21.6933 18.4061 21.9248 18.3686 21.9373 18.3686C22.9698 18.1183 23.5643 17.5488 23.7208 16.6602C23.7834 16.3098 23.9586 16.1346 24.2464 16.1346C24.3966 16.1346 24.5186 16.1846 24.6125 16.2847C24.7126 16.3849 24.7627 16.5038 24.7627 16.6414C24.7627 16.7666 24.7377 16.923 24.6876 17.1108C24.4936 17.8304 24.0931 18.3842 23.4861 18.7722C22.8854 19.1665 22.1688 19.4011 21.3366 19.4762H21.299C21.1488 19.4762 21.0237 19.4262 20.9235 19.326ZM26.396 14.1164H25.814V15.0833C25.814 15.2147 25.7639 15.3304 25.6638 15.4306C25.5699 15.5307 25.4479 15.5807 25.2977 15.5807C25.1538 15.5807 25.0318 15.5307 24.9317 15.4306C24.8315 15.3304 24.7815 15.2147 24.7815 15.0833V12.1077C24.7815 11.9763 24.8315 11.8605 24.9317 11.7604C25.0318 11.6602 25.1538 11.6102 25.2977 11.6102C25.4479 11.6102 25.5699 11.6602 25.6638 11.7604C25.7639 11.8605 25.814 11.9763 25.814 12.1077V13.2529H26.396V12.1077C26.396 11.9763 26.4429 11.8605 26.5368 11.7604C26.6369 11.6602 26.7589 11.6102 26.9029 11.6102C27.053 11.6102 27.1751 11.6602 27.2689 11.7604C27.3691 11.8605 27.4191 11.9763 27.4191 12.1077V15.2616C27.4191 15.393 27.3691 15.5088 27.2689 15.6089C27.1751 15.709 27.053 15.7591 26.9029 15.7591C26.7589 15.7591 26.6369 15.709 26.5368 15.6089C26.4429 15.5088 26.396 15.393 26.396 15.2616V14.1164ZM21.5149 12.5864V14.6045H23.8522C23.9836 14.6045 24.09 14.6483 24.1713 14.7359C24.2589 14.8236 24.3027 14.9268 24.3027 15.0457C24.3027 15.1583 24.2589 15.2585 24.1713 15.3461C24.09 15.4337 23.9836 15.4775 23.8522 15.4775H20.9986C20.8547 15.4775 20.7327 15.4274 20.6326 15.3273C20.5387 15.2209 20.4918 15.102 20.4918 14.9706V12.2203C20.4918 12.0889 20.5387 11.9731 20.6326 11.873C20.7327 11.7729 20.8547 11.7228 20.9986 11.7228H23.8522C23.9836 11.7228 24.09 11.7666 24.1713 11.8542C24.2589 11.9418 24.3027 12.042 24.3027 12.1546C24.3027 12.2673 24.2589 12.3674 24.1713 12.455C24.09 12.5426 23.9836 12.5864 23.8522 12.5864H21.5149Z" fill="#F9FAFB"/>
</svg>
