<svg width="192" height="192" viewBox="0 0 192 192" fill="none" xmlns="http://www.w3.org/2000/svg">
<rect width="192" height="192" rx="15.36" fill="#002F76"/>
<path d="M31.7778 105.854V113.232H63.0354C63.7863 113.232 64.4058 113.495 64.8939 114.021C65.4196 114.546 65.6824 115.147 65.6824 115.823C65.6824 116.536 65.4196 117.137 64.8939 117.625C64.4058 118.151 63.7863 118.414 63.0354 118.414H28.6802C27.779 118.414 27.0281 118.113 26.4274 117.512C25.8642 116.912 25.5826 116.217 25.5826 115.429V105.854C25.5826 105.066 25.8642 104.371 26.4274 103.77C27.0281 103.17 27.779 102.869 28.6802 102.869C29.5437 102.869 30.2759 103.17 30.8766 103.77C31.4774 104.371 31.7778 105.066 31.7778 105.854ZM32.7352 76.9058V85.917H62.0216C62.7725 85.917 63.3921 86.1798 63.8802 86.7054C64.4058 87.1935 64.6686 87.7943 64.6686 88.5077C64.6686 89.1835 64.4058 89.7843 63.8802 90.3099C63.3921 90.8356 62.7725 91.0984 62.0216 91.0984H48.7301V94.3086H66.8651C67.6161 94.3086 68.2356 94.5715 68.7237 95.0971C69.2493 95.6228 69.5122 96.2235 69.5122 96.8994C69.5122 97.6127 69.2493 98.2323 68.7237 98.7579C68.2356 99.246 67.6161 99.4901 66.8651 99.4901H24.3998C23.6489 99.4901 23.0106 99.246 22.485 98.7579C21.9969 98.2323 21.7528 97.6127 21.7528 96.8994C21.7528 96.2235 21.9969 95.6228 22.485 95.0971C23.0106 94.5715 23.6489 94.3086 24.3998 94.3086H42.5349V91.0984H29.6376C28.774 91.0984 28.0419 90.798 27.4411 90.1973C26.8779 89.5965 26.5963 88.8831 26.5963 88.0571V74.7656C26.5963 73.9771 26.8779 73.2825 27.4411 72.6818C28.0419 72.0435 28.774 71.7243 29.6376 71.7243H62.0216C62.7725 71.7243 63.3921 71.9871 63.8802 72.5128C64.4058 73.0384 64.6686 73.6392 64.6686 74.315C64.6686 75.0284 64.4058 75.6479 63.8802 76.1736C63.3921 76.6617 62.7725 76.9058 62.0216 76.9058H32.7352ZM82.2255 77.0184V87.6629H112.469C113.22 87.6629 113.859 87.9257 114.384 88.4514C114.91 88.977 115.173 89.5778 115.173 90.2536C115.173 90.9294 114.91 91.5302 114.384 92.0558C113.859 92.5815 113.22 92.8443 112.469 92.8443H79.1279C78.2268 92.8443 77.4759 92.5439 76.8751 91.9432C76.3119 91.3425 76.0303 90.6478 76.0303 89.8594V74.8219C76.0303 74.0334 76.3119 73.3388 76.8751 72.7381C77.4759 72.1373 78.2268 71.837 79.1279 71.837H112.469C113.22 71.837 113.859 72.0998 114.384 72.6254C114.91 73.1511 115.173 73.7518 115.173 74.4277C115.173 75.1035 114.91 75.7043 114.384 76.2299C113.859 76.7556 113.22 77.0184 112.469 77.0184H82.2255ZM92.5321 115.429V102.588H74.397C73.6461 102.588 73.0078 102.344 72.4822 101.856C71.9941 101.33 71.75 100.71 71.75 99.997C71.75 99.3211 71.9941 98.7204 72.4822 98.1947C73.0078 97.6691 73.6461 97.4062 74.397 97.4062H116.862C117.613 97.4062 118.233 97.6691 118.721 98.1947C119.247 98.7204 119.509 99.3211 119.509 99.997C119.509 100.71 119.247 101.33 118.721 101.856C118.233 102.344 117.613 102.588 116.862 102.588H98.7273V115.429C98.7273 116.217 98.4269 116.912 97.8262 117.512C97.2254 118.113 96.4933 118.414 95.6297 118.414C94.7661 118.414 94.034 118.113 93.4332 117.512C92.8325 116.912 92.5321 116.217 92.5321 115.429ZM152.723 111.768C151.897 111.618 151.24 111.28 150.752 110.754C150.264 110.191 150.02 109.534 150.02 108.783C150.02 107.957 150.301 107.243 150.865 106.643C151.428 106.042 152.16 105.742 153.061 105.742C153.474 105.742 153.85 105.798 154.188 105.911C160.27 106.962 164.381 109.665 166.522 114.021C166.747 114.621 166.86 115.072 166.86 115.372C166.86 116.198 166.559 116.893 165.958 117.456C165.395 118.057 164.663 118.357 163.762 118.357C162.56 118.357 161.641 117.813 161.002 116.724C159.388 114.021 156.628 112.369 152.723 111.768ZM127.041 117.456C126.441 116.855 126.14 116.161 126.14 115.372C126.14 114.584 126.403 113.908 126.929 113.345C127.454 112.819 128.13 112.5 128.956 112.387C131.66 111.937 133.049 111.712 133.124 111.712C139.319 110.21 142.886 106.793 143.825 101.461C144.2 99.3587 145.251 98.3074 146.979 98.3074C147.88 98.3074 148.612 98.6077 149.175 99.2085C149.776 99.8092 150.076 100.523 150.076 101.349C150.076 102.1 149.926 103.038 149.626 104.165C148.462 108.483 146.059 111.805 142.417 114.133C138.812 116.499 134.513 117.907 129.519 118.357H129.294C128.393 118.357 127.642 118.057 127.041 117.456ZM159.876 86.1986H156.384V91.9995C156.384 92.788 156.084 93.4826 155.483 94.0834C154.92 94.6841 154.188 94.9845 153.286 94.9845C152.423 94.9845 151.691 94.6841 151.09 94.0834C150.489 93.4826 150.189 92.788 150.189 91.9995V74.1461C150.189 73.3576 150.489 72.663 151.09 72.0622C151.691 71.4615 152.423 71.1611 153.286 71.1611C154.188 71.1611 154.92 71.4615 155.483 72.0622C156.084 72.663 156.384 73.3576 156.384 74.1461V81.0171H159.876V74.1461C159.876 73.3576 160.157 72.663 160.721 72.0622C161.321 71.4615 162.054 71.1611 162.917 71.1611C163.818 71.1611 164.55 71.4615 165.114 72.0622C165.714 72.663 166.015 73.3576 166.015 74.1461V93.0696C166.015 93.8581 165.714 94.5527 165.114 95.1534C164.55 95.7542 163.818 96.0546 162.917 96.0546C162.054 96.0546 161.321 95.7542 160.721 95.1534C160.157 94.5527 159.876 93.8581 159.876 93.0696V86.1986ZM130.589 77.0184V89.1272H144.613C145.402 89.1272 146.04 89.39 146.528 89.9157C147.054 90.4413 147.316 91.0609 147.316 91.7742C147.316 92.4501 147.054 93.0508 146.528 93.5765C146.04 94.1021 145.402 94.365 144.613 94.365H127.492C126.628 94.365 125.896 94.0646 125.295 93.4638C124.732 92.8255 124.451 92.1122 124.451 91.3237V74.8219C124.451 74.0334 124.732 73.3388 125.295 72.7381C125.896 72.1373 126.628 71.837 127.492 71.837H144.613C145.402 71.837 146.04 72.0998 146.528 72.6254C147.054 73.1511 147.316 73.7518 147.316 74.4277C147.316 75.1035 147.054 75.7043 146.528 76.2299C146.04 76.7556 145.402 77.0184 144.613 77.0184H130.589Z" fill="#F9FAFB"/>
</svg>
