<svg width="512" height="512" viewBox="0 0 512 512" fill="none" xmlns="http://www.w3.org/2000/svg">
<rect width="512" height="512" rx="40.96" fill="#002F76"/>
<path d="M85.7407 283.278V302.952H169.094C171.097 302.952 172.749 303.653 174.05 305.055C175.452 306.457 176.153 308.059 176.153 309.861C176.153 311.763 175.452 313.365 174.05 314.667C172.749 316.069 171.097 316.77 169.094 316.77H77.4804C75.0774 316.77 73.075 315.969 71.473 314.367C69.9711 312.765 69.2202 310.912 69.2202 308.81V283.278C69.2202 281.175 69.9711 279.323 71.473 277.721C73.075 276.119 75.0774 275.318 77.4804 275.318C79.7833 275.318 81.7357 276.119 83.3377 277.721C84.9397 279.323 85.7407 281.175 85.7407 283.278ZM88.2939 206.082V230.112H166.391C168.393 230.112 170.045 230.813 171.347 232.214C172.749 233.516 173.45 235.118 173.45 237.02C173.45 238.823 172.749 240.425 171.347 241.826C170.045 243.228 168.393 243.929 166.391 243.929H130.947V252.49H179.307C181.309 252.49 182.962 253.191 184.263 254.592C185.665 255.994 186.366 257.596 186.366 259.398C186.366 261.301 185.665 262.953 184.263 264.354C182.962 265.656 181.309 266.307 179.307 266.307H66.0662C64.0638 266.307 62.3616 265.656 60.9599 264.354C59.6583 262.953 59.0075 261.301 59.0075 259.398C59.0075 257.596 59.6583 255.994 60.9599 254.592C62.3616 253.191 64.0638 252.49 66.0662 252.49H114.426V243.929H80.0336C77.7307 243.929 75.7783 243.128 74.1763 241.526C72.6745 239.924 71.9235 238.022 71.9235 235.819V200.375C71.9235 198.272 72.6745 196.42 74.1763 194.818C75.7783 193.116 77.7307 192.265 80.0336 192.265H166.391C168.393 192.265 170.045 192.966 171.347 194.367C172.749 195.769 173.45 197.371 173.45 199.173C173.45 201.076 172.749 202.728 171.347 204.13C170.045 205.431 168.393 206.082 166.391 206.082H88.2939ZM220.268 206.382V234.768H300.918C302.921 234.768 304.623 235.469 306.025 236.87C307.426 238.272 308.127 239.874 308.127 241.676C308.127 243.479 307.426 245.08 306.025 246.482C304.623 247.884 302.921 248.585 300.918 248.585H212.008C209.605 248.585 207.602 247.784 206 246.182C204.498 244.58 203.748 242.728 203.748 240.625V200.525C203.748 198.422 204.498 196.57 206 194.968C207.602 193.366 209.605 192.565 212.008 192.565H300.918C302.921 192.565 304.623 193.266 306.025 194.668C307.426 196.07 308.127 197.672 308.127 199.474C308.127 201.276 307.426 202.878 306.025 204.28C304.623 205.682 302.921 206.382 300.918 206.382H220.268ZM247.752 308.81V274.567H199.392C197.39 274.567 195.688 273.916 194.286 272.615C192.984 271.213 192.333 269.561 192.333 267.659C192.333 265.856 192.984 264.254 194.286 262.853C195.688 261.451 197.39 260.75 199.392 260.75H312.633C314.635 260.75 316.287 261.451 317.589 262.853C318.991 264.254 319.692 265.856 319.692 267.659C319.692 269.561 318.991 271.213 317.589 272.615C316.287 273.916 314.635 274.567 312.633 274.567H264.273V308.81C264.273 310.912 263.472 312.765 261.87 314.367C260.268 315.969 258.315 316.77 256.013 316.77C253.71 316.77 251.757 315.969 250.155 314.367C248.553 312.765 247.752 310.912 247.752 308.81ZM408.262 299.048C406.059 298.647 404.307 297.746 403.005 296.344C401.704 294.842 401.053 293.09 401.053 291.088C401.053 288.885 401.804 286.983 403.306 285.381C404.808 283.779 406.76 282.978 409.163 282.978C410.264 282.978 411.266 283.128 412.167 283.428C428.387 286.232 439.351 293.441 445.058 305.055C445.658 306.657 445.959 307.859 445.959 308.66C445.959 310.862 445.158 312.715 443.556 314.216C442.054 315.818 440.101 316.619 437.698 316.619C434.495 316.619 432.041 315.168 430.339 312.264C426.034 305.055 418.675 300.65 408.262 299.048ZM339.777 314.216C338.175 312.614 337.374 310.762 337.374 308.66C337.374 306.557 338.075 304.755 339.476 303.253C340.878 301.851 342.68 301 344.883 300.7C352.092 299.498 355.797 298.897 355.997 298.897C372.517 294.892 382.029 285.781 384.532 271.563C385.534 265.956 388.337 263.153 392.943 263.153C395.346 263.153 397.298 263.954 398.8 265.556C400.402 267.158 401.203 269.06 401.203 271.263C401.203 273.266 400.803 275.769 400.002 278.772C396.898 290.287 390.49 299.148 380.778 305.355C371.166 311.663 359.702 315.418 346.385 316.619H345.784C343.381 316.619 341.379 315.818 339.777 314.216ZM427.336 230.863H418.024V246.332C418.024 248.435 417.223 250.287 415.621 251.889C414.119 253.491 412.167 254.292 409.764 254.292C407.461 254.292 405.508 253.491 403.906 251.889C402.305 250.287 401.504 248.435 401.504 246.332V198.723C401.504 196.62 402.305 194.768 403.906 193.166C405.508 191.564 407.461 190.763 409.764 190.763C412.167 190.763 414.119 191.564 415.621 193.166C417.223 194.768 418.024 196.62 418.024 198.723V217.046H427.336V198.723C427.336 196.62 428.087 194.768 429.588 193.166C431.19 191.564 433.143 190.763 435.446 190.763C437.849 190.763 439.801 191.564 441.303 193.166C442.905 194.768 443.706 196.62 443.706 198.723V249.186C443.706 251.288 442.905 253.141 441.303 254.742C439.801 256.344 437.849 257.145 435.446 257.145C433.143 257.145 431.19 256.344 429.588 254.742C428.087 253.141 427.336 251.288 427.336 249.186V230.863ZM349.239 206.382V238.673H386.635C388.738 238.673 390.44 239.373 391.741 240.775C393.143 242.177 393.844 243.829 393.844 245.731C393.844 247.534 393.143 249.136 391.741 250.537C390.44 251.939 388.738 252.64 386.635 252.64H340.978C338.675 252.64 336.723 251.839 335.121 250.237C333.619 248.535 332.868 246.632 332.868 244.53V200.525C332.868 198.422 333.619 196.57 335.121 194.968C336.723 193.366 338.675 192.565 340.978 192.565H386.635C388.738 192.565 390.44 193.266 391.741 194.668C393.143 196.07 393.844 197.672 393.844 199.474C393.844 201.276 393.143 202.878 391.741 204.28C390.44 205.682 388.738 206.382 386.635 206.382H349.239Z" fill="#F9FAFB"/>
</svg>
